mtllib materials.mtl
v 0.1140427 -0.2278931 -0.1155166
v 0.1312329 -0.2322268 -0.01085669
v 0.1472213 -0.1358662 -0.107816
v 0.02139288 -0.08127195 -0.08500302
v 0.0385831 -0.08560574 0.0196569
v -0.003871441 -0.1534111 0.01981747
v 0.03133923 -0.1676515 -0.1013911
v -0.11514 -0.2072791 -0.05408132
v 0.157444 -0.1344254 -0.0236367
v 0.1428508 -0.07421124 -0.04412407
v 0.1206478 -0.1198994 -0.01768136
v 0.1049065 -0.08981317 -0.02681166
v 0.07702518 -0.05368602 -0.07991934
v 0.1459299 -0.07931256 -0.09420979
v 0.2175479 0.02053583 -0.04918218
v 0.08675927 -0.05549175 -0.02572715
v 0.1114011 -0.06442022 -0.03916514
v 0.07645684 0.01459527 -0.07790232
v 0.1111934 -0.03235859 -0.08605611
v 0.1856171 -0.01975435 -0.09415919
v 0.1412514 0.007053733 -0.08720052
v 0.06853342 0.01390743 -0.01537353
v 0.1502279 0.02544177 -0.009473145
v 0.1186983 -0.03831899 -0.03984445
v 0.2157312 0.03350842 -0.1012979
v 0.1840513 0.07339525 -0.08400679
v 0.2169912 0.09573054 -0.0456171
v 0.1600005 0.1216799 -0.04204696
v 0.07777691 0.0709101 -0.0181669
v 0.1469061 0.09560728 -0.01551545
v 0.1496911 0.06405747 -0.01222801
v 0.05270994 0.04053593 -0.01076037
v 0.1145549 0.1031971 -0.03078389
v 0.1127391 0.07829666 -0.06754053
v 0.1553748 0.0894593 -0.07706028
v 0.1526046 0.1534142 -0.0576039
v 0.109041 0.1303384 -0.05798733
v 0.106062 0.1212316 -0.09894073
v 0.149391 0.1327584 -0.1041645
v 0.2008696 0.1892372 -0.04234433
v 0.06780803 0.1765924 -0.03281152
v 0.09159285 0.1157449 -0.1364524
v 0.1543178 0.1210558 -0.1488192
v 0.1705482 0.2853193 -0.05657476
v 0.0702002 0.2695825 -0.03493083
v 0.06619674 0.2232895 -0.1207242
v 0.1473207 0.2403032 -0.1462475
v 0.006443322 -0.1024551 -0.08205074
v -0.1248693 -0.1865973 -0.1630625
v 0.06818044 -0.1912294 0.02260792
v -0.1011857 -0.2047004 -0.009418607
v -0.1015437 -0.252697 -0.0155012
v -0.1155802 -0.2541356 -0.05668223
v -0.2143361 -0.2093846 0.05479276
v -0.2015142 -0.2719315 0.04207754
v -0.1332098 -0.1903515 0.1204133
v -0.1190814 -0.2633528 0.1084043
v -0.2908382 -0.1946661 -0.002621531
v 0.1873883 0.005731821 -0.11081
v 0.1129646 -0.006872594 -0.102707
v -0.09613055 -0.1673437 -0.1127653
v -0.09945059 -0.1966472 -0.111478
v -0.1147087 -0.2558332 -0.1452782
v -0.1720266 -0.1071904 0.02360874
v -0.06668502 -0.1200386 0.02608037
v -0.07925981 -0.1930729 0.06578159
v -0.1781927 -0.1624589 0.05202919
v -0.2098053 -0.1057336 0.02491623
v -0.06387132 -0.1041776 0.08132923
v -0.1690934 -0.09076142 0.07728529
v -0.07745087 -0.1774965 0.1201655
v -0.1738805 -0.1481478 0.09398383
v -0.2581773 -0.152945 0.1089201
v -0.2558023 -0.1689659 0.05598074
v -0.2098921 -0.08576357 0.07660174
v -0.1661327 -0.2037395 0.1630625
v -0.1520044 -0.2767407 0.1510534
v -0.2344371 -0.2853194 0.08472681
v -0.323761 -0.208054 0.04002768
v -0.2872293 -0.2846099 0.05218995
v -0.2543063 -0.2712219 0.009540737
v -0.2371787 -0.2162313 0.08552277
v 0.2515088 0.07528341 -0.05077815
v 0.2218286 -0.02175462 -0.04463166
v 0.2416029 -0.02761793 -0.05450308
v 0.2235368 -0.02874047 -0.07511443
v 0.2130005 -0.09131092 -0.0549683
v 0.2414138 -0.08449197 -0.04800266
v 0.2459884 -0.0862996 -0.08779997
v 0.2274967 -0.2270563 -0.05066997
v 0.2488332 -0.2070345 -0.05036384
v 0.2415746 -0.22979 -0.0732705
v 0.2748205 -0.2278804 -0.02513915
v 0.2885857 -0.2058104 -0.04684955
v 0.305216 -0.2319894 -0.02555746
v 0.3186826 -0.2305101 -0.05917048
v 0.2867448 -0.2272863 -0.07857937
v 0.323761 -0.2289763 -0.03858382
v 0.03514791 -0.01154643 -0.006389737
v 0.06583536 -0.03305662 0.004811764
v 0.05139267 -0.03172445 -0.0330255
v 0.01636285 -0.0523721 0.003319204
v 0.02578759 -0.08971912 0.04242772
v 0.04616362 -0.0764668 -0.006556511
v -0.01401532 -0.07957768 -0.1007657
v -0.02499348 -0.1037274 -0.09415072
v 0.00630188 -0.09889877 -0.09673744
v -0.01146561 -0.122103 -0.1272734
v -0.03688949 -0.1241139 -0.1099177
v -0.01828945 -0.1577044 -0.1303554
v 0.003603935 -0.1525456 -0.1224243
v 0.00774914 -0.1316999 -0.1076856
v -0.03414255 -0.1454784 -0.1231012
v 0.08214724 -0.1069523 -0.004391253
v 0.08781749 -0.1455962 0.01196712
vn 0.931972 -0.3220799 -0.1664112
vn -0.8366029 0.5241924 0.1591165
vn -0.2683356 -0.1450833 -0.9523376
vn 0.9733363 0.1945421 -0.1215315
vn -0.03496873 0.1823948 -0.9826033
vn 0.3037871 0.4186624 0.8558242
vn -0.4496127 0.8863561 0.1105506
vn -0.05179621 0.281056 -0.9582925
vn 0.783352 -0.6116852 0.1104585
vn 0.9981328 0.008230438 0.06052313
vn -0.1149316 0.2298824 -0.9664083
vn 0.5326863 0.2561667 0.8066126
vn -0.4499815 0.8861932 0.110356
vn -0.9842374 -0.01340112 0.1763444
vn -0.1932299 0.02736339 -0.9807719
vn 0.8285431 -0.5520281 -0.0937085
vn -0.1104626 0.07445033 -0.9910879
vn -0.004830716 -0.4280846 0.9037258
vn -0.9640611 -0.2345749 -0.1247431
vn -0.1522796 -0.095486 -0.983714
vn 0.280401 0.7053931 -0.650996
vn 0.3907685 0.6094211 -0.6898594
vn -0.1951333 0.2555059 -0.9469106
vn -0.07272936 0.09700935 0.9926226
vn -0.7384284 0.4987352 -0.4538577
vn 0.1547473 0.201669 0.9671519
vn -0.7419298 0.4959678 -0.4511718
vn -0.1996757 0.2644998 -0.9434879
vn 0.9665143 0.1120904 -0.2308373
vn 0.2290918 0.7010062 -0.6753572
vn -0.2234608 0.02247255 -0.9744537
vn 0.1549881 0.2075027 0.9658785
vn -0.6796178 0.6224805 -0.3881209
vn -0.1052365 0.6932374 0.7129847
vn -0.9915667 -0.07916199 0.1026109
vn -0.02460431 -0.5926307 -0.8050984
vn 0.4959522 -0.8059202 0.3233017
vn 0.992128 0.07376119 -0.1011997
vn 0.03765884 -0.5264729 -0.8493575
vn -0.2140936 0.3892903 0.8958889
vn -0.9898362 -0.1054242 0.09544607
vn 0.1750251 -0.3457385 0.9218628
vn -0.2301082 -0.9462804 0.2271648
vn 0.2614072 -0.9643902 0.04022343
vn 0.8471419 0.1940775 -0.494656
vn 0.5475999 -0.7926142 0.2681366
vn 0.1331019 -0.9550268 0.2649673
vn 0.1096344 -0.5109018 0.8526193
vn -0.6381512 -0.71889 0.2756085
vn 0.06946284 0.0209437 0.9973646
vn -0.9717496 -0.2153497 -0.09657758
vn -0.3006747 0.002925279 -0.9537222
vn -0.314686 0.8414056 -0.4393283
vn 0.9581454 0.06224784 -0.2794325
vn -0.9991267 0.0264399 0.03235673
vn -0.2003167 0.09530032 -0.9750852
vn 0.1767863 0.1985666 0.9640114
vn -0.2242099 0.8930061 -0.3902179
vn 0.3007259 0.374967 -0.8769058
vn -0.1185043 0.9684226 0.2193499
vn 0.03656807 -0.5975703 0.8009822
vn 0.08856832 -0.99451 -0.05572783
vn -0.7524136 -0.02039964 -0.6583751
vn -0.253814 0.05598503 -0.9656315
vn 0.1126166 -0.9936318 -0.003673292
vn -0.2539864 0.9669216 0.02352669
vn -0.1749887 -0.1224999 0.9769201
vn 0.09363334 0.9918401 -0.08652134
vn 0.9901193 -0.02487332 0.1380039
vn 0.2428809 -0.9688208 -0.04894043
vn 0.6103389 0.2760566 -0.7424818
vn 0.144749 -0.9880959 -0.05209767
vn -0.1417349 0.9837616 -0.1101111
vn 0.9636285 0.1501249 0.2210946
vn -0.7388989 0.0442632 -0.672361
vn 0.6464878 -0.4482592 -0.617347
vn 0.5908338 -0.4696518 -0.656005
vn -0.3498029 0.60258 -0.7173111
vn -0.007430153 0.7506762 -0.6606286
vn -0.4108419 -0.4784732 -0.7760621
vn -0.6619154 -0.3772 -0.6477563
vn -0.57307 0.7546713 0.3194714
vn 0.2278495 -0.9419008 -0.2467944
vn -0.9686387 -0.1848122 -0.1660832
vn 0.3799353 -0.1774344 -0.907836
vn 0.04526286 -0.5041786 0.8624124
vn -0.5298088 0.8478363 -0.02182576
vn -0.8208829 0.1175565 0.5588664
vn -0.1110184 0.9476689 -0.2993305
vn 0.9870519 -0.1166676 -0.1100779
vn 0.9758456 -0.1902854 -0.107317
vn -0.0482667 -0.4525082 -0.8904531
vn -0.9566749 -0.0414608 -0.2881911
vn -0.3203575 -0.8919567 0.3190365
vn 0.121212 0.9240804 -0.3624682
vn 0.9642256 -0.2338625 -0.1248092
vn -0.7842363 0.5830352 0.2122344
vn -0.3688519 0.1320826 -0.9200557
vn 0.9561533 -0.2708192 -0.1114796
vn -0.1234036 0.1268484 -0.984216
vn 0.1227026 0.9522381 -0.2796189
vn 0.986626 -0.1624238 0.01370361
vn -0.318721 -0.9083509 0.2707684
vn 0.02517298 0.4642849 0.8853281
vn -0.3563119 -0.8725351 0.3342519
vn 0.0493104 0.9542927 -0.2947778
vn 0.1536676 0.2642384 0.9521367
vn 0.09466834 -0.9516478 0.2922408
vn -0.8383582 0.5101849 -0.1920079
vn -0.009323907 -0.4354477 -0.9001657
vn 0.03528456 0.4125298 0.9102606
vn -0.2871178 0.9547101 0.0780513
vn 0.7830276 0.04954866 0.6200103
vn 0.2127644 -0.9671168 -0.1393427
vn -0.5930263 -0.2411497 0.768223
vn -0.02623703 0.9593778 0.2809021
vn -0.5223135 -0.1150056 0.8449629
vn 0.1183092 -0.9698384 -0.2131112
vn -0.653765 -0.4127303 -0.6342279
vn -0.8364161 0.5107864 -0.1987598
vn 0.119449 0.9261832 -0.3576544
vn -0.1681854 0.2883253 0.9426463
vn 0.1088178 -0.9441966 0.3108882
vn -0.2250995 0.9730785 0.04948167
vn -0.7338316 -0.03693532 0.6783266
vn -0.01592007 0.97839 0.2061543
vn -0.4670816 -0.02871645 0.8837478
vn 0.5223135 0.115007 -0.8449627
vn 0.2707937 0.6388841 -0.7200681
vn -0.9949737 -0.09964824 0.009878776
vn 0.1209427 -0.04611671 0.9915877
vn 0.1236023 -0.04777838 0.9911809
vn 0.8376542 -0.06098907 -0.5427851
vn -0.9865891 0.1381381 -0.0869468
vn -0.9905942 -0.1345901 -0.02466882
vn 0.7448801 -0.1771637 -0.6432469
vn 0.4754253 0.1415519 0.8682936
vn 0.8510143 -0.5018733 -0.1545901
vn 0.4677597 0.09883147 0.8783128
vn 0.7518452 -0.07733785 -0.6547884
vn -0.6946945 -0.09675568 -0.7127678
vn -0.6922435 -0.112928 -0.7127736
vn 0.9343853 0.3442425 0.09176749
vn -0.2097295 -0.1176285 0.970658
vn -0.2305653 -0.03269807 0.9725074
vn 0.9920858 0.05791903 0.1114053
vn -0.0615487 -0.9947318 0.08197886
vn 0.9663128 -0.05517828 -0.2513861
vn -0.04000041 0.02735556 0.9988251
vn -0.8499552 -0.02713248 -0.5261559
vn -0.09024541 0.08099482 0.9926206
vn 0.04120271 0.7022834 -0.7107041
vn -0.1346459 -0.9861007 -0.09734462
vn 0.05549316 -0.9984582 0.001281989
vn -0.1107386 0.8260195 -0.5526561
vn -0.2997137 0.7574791 0.5799975
vn 0.2226605 0.609558 0.7608293
vn 0.5572665 0.6722692 -0.487348
vn 0.1800175 -0.9832404 0.02884681
vn 0.1284758 0.9103161 0.3934699
vn 0.1683948 0.9790492 -0.1144813
vn -0.08261625 -0.9961445 -0.029509
vn -0.8742183 0.2603953 -0.4098006
vn 0.2819065 0.001302233 0.959441
vn 0.6546352 0.2664478 0.7074309
vn 0.9920666 -0.002976735 0.1256788
vn -0.7600969 0.2029362 -0.6173084
vn -0.8617061 -0.02473637 -0.5068042
vn 0.6964654 -0.6568352 -0.2889698
vn -0.2372862 0.1604141 0.9581036
vn 0.05700659 0.5239021 0.8498687
vn 0.6835996 -0.672084 -0.2845957
vn 0.5141684 0.7811208 -0.3542332
vn -0.5510387 -0.3762422 -0.7448478
vn 0.9005523 0.1385359 0.4120842
vn -0.6706787 0.4490064 0.5904095
vn -0.9348365 0.1156429 0.3357193
vn 0.4270967 -0.9017715 -0.06630744
vn 0.5711149 0.4586176 -0.6808066
vn 0.6623615 0.6041377 -0.4430519
vn 0.1639387 -0.9718385 0.1692747
vn -0.885651 0.4417798 0.1430138
vn -0.8931407 0.4361297 0.1099565
vn 0.1625568 -0.6612508 0.7323406
vn 0.3370315 0.01689054 -0.9413418
vn 0.7491601 0.2392199 -0.6176836
vn -0.1013315 -0.3189926 0.9423245
vn -0.5332018 0.4242626 -0.7319133
vn -0.5398818 0.3906708 -0.7455897
vn -0.1323404 -0.5327903 0.8358352
vn -0.1309877 -0.6259815 0.7687584
vn -0.1190806 -0.5573115 0.8217199
vn -0.3190435 0.1422673 -0.9370012
vn 0.7502713 0.2756776 -0.6009116
vn 0.3943757 -0.04060614 0.9180517
vn -0.08166081 0.06979235 0.9942135
vn 0.4636095 -0.3214229 0.8256837
vn 0.4171332 0.4055115 0.8133637
vn 0.3280573 0.5032559 0.7994448
vn 0.5639144 0.2726571 0.7795247
vn 0.2572304 0.3665611 0.8941284
vn 0.4159632 -0.02637132 0.908999
vn 0.4238521 0.4587603 0.7809535
vn 0.5629262 0.272993 0.7801212
vn 0.1507447 -0.01641745 0.9884364
vn 0.5105562 0.06824517 0.8571318
vn -0.07635935 0.06115099 0.9952034
vn 0.2558231 0.3692182 0.8934385
vn 0.447533 -0.1019946 0.888432
vn -0.2793239 -0.2968427 0.9131607
vn 0.5389535 0.1342229 0.8315729
vn 0.5837625 0.3876488 0.7134072
vn 0.4560281 -0.005925196 0.8899456
vn 0.08973758 -0.05383222 0.9945095
vn 0.4704775 0.003302655 0.8824058
vn -0.4076289 -0.7368233 0.5393795
vn -0.2527696 0.7703605 -0.5853651
vn 0.06672398 0.1992619 0.977672
usemtl mat21
f 3//1 2//1 1//1
f 6//2 5//2 4//2
f 8//3 7//3 1//3
f 10//4 9//4 3//4
f 7//5 4//5 1//5
f 12//6 11//6 9//6
f 13//7 4//7 5//7
f 13//8 3//8 4//8
f 15//9 10//9 14//9
f 3//10 14//10 10//10
f 13//11 14//11 3//11
f 12//12 17//12 16//12
f 5//13 16//13 13//13
f 18//14 13//14 16//14
f 18//15 19//15 14//15 13//15
f 14//16 20//16 15//16
f 19//17 21//17 20//17 14//17
f 24//18 23//18 22//18
f 16//19 22//19 18//19
f 25//20 21//20 18//20
f 28//21 27//21 26//21
f 25//22 26//22 27//22
f 18//23 26//23 25//23
f 31//24 30//24 29//24
f 32//25 29//25 18//25
f 33//26 29//26 27//26
f 34//27 18//27 29//27
f 34//28 26//28 18//28
f 36//29 28//29 35//29
f 26//30 35//30 28//30
f 34//31 35//31 26//31
f 27//32 28//32 33//32
f 29//33 33//33 34//33
f 37//34 33//34 28//34
f 38//35 34//35 33//35
f 38//36 35//36 34//36
f 40//37 36//37 39//37
f 35//38 39//38 36//38
f 38//39 39//39 35//39
f 28//40 36//40 37//40
f 33//41 37//41 38//41
f 41//42 37//42 36//42
f 42//43 38//43 37//43
f 42//44 39//44 38//44
f 44//45 40//45 43//45
f 39//46 43//46 40//46
f 42//47 43//47 39//47
f 36//48 40//48 41//48
f 37//49 41//49 42//49
f 45//50 41//50 40//50
f 46//51 42//51 41//51
f 46//52 47//52 43//52
f 46//53 45//53 47//53
f 43//54 47//54 44//54
f 41//55 45//55 46//55
f 43//56 42//56 46//56
f 40//57 44//57 45//57
f 45//58 44//58 47//58
f 49//59 48//59 7//59
f 51//60 50//60 7//60
f 52//61 2//61 50//61
f 52//62 1//62 2//62
f 55//63 54//63 53//63
f 1//64 53//64 8//64
f 52//65 53//65 1//65
f 7//66 8//66 51//66
f 50//67 51//67 52//67
f 56//68 51//68 8//68
f 57//69 52//69 51//69
f 57//70 53//70 52//70
f 58//71 54//71 55//71
f 57//72 55//72 53//72
f 8//73 54//73 56//73
f 51//74 56//74 57//74
f 54//75 8//75 53//75
f 59//76 25//76 20//76
f 19//77 60//77 21//77
f 59//78 21//78 25//78
f 60//79 18//79 21//79
f 21//80 59//80 20//80
f 18//81 60//81 19//81
f 61//82 6//82 48//82
f 62//83 7//83 50//83
f 64//84 49//84 63//84
f 7//85 63//85 49//85
f 62//86 63//86 7//86
f 48//87 49//87 61//87
f 6//88 61//88 62//88
f 65//89 61//89 49//89
f 66//90 62//90 61//90
f 66//91 63//91 62//91
f 68//92 64//92 67//92
f 63//93 67//93 64//93
f 66//94 67//94 63//94
f 49//95 64//95 65//95
f 61//96 65//96 66//96
f 4//97 48//97 6//97
f 7//98 48//98 4//98
f 3//99 9//99 2//99
f 4//100 3//100 1//100
f 70//101 69//101 65//101 64//101
f 69//102 71//102 66//102 65//102
f 71//103 67//103 66//103
f 71//104 69//104 70//104
f 71//105 72//105 67//105
f 68//106 70//106 64//106
f 73//107 72//107 70//107
f 73//108 74//108 67//108
f 73//109 75//109 74//109
f 67//110 74//110 68//110
f 70//111 75//111 73//111
f 76//112 56//112 54//112
f 76//113 77//113 57//113 56//113
f 77//114 78//114 55//114 57//114
f 77//115 76//115 78//115
f 58//116 79//116 54//116
f 79//117 80//117 78//117
f 80//118 81//118 55//118 78//118
f 80//119 79//119 58//119 81//119
f 75//120 68//120 74//120
f 68//121 75//121 70//121
f 70//122 72//122 71//122
f 67//123 72//123 73//123
f 54//124 82//124 76//124
f 76//125 82//125 78//125
f 79//126 82//126 54//126
f 78//127 82//127 79//127
f 55//128 81//128 58//128
f 83//129 25//129 27//129
f 84//130 15//130 25//130
f 83//131 27//131 15//131
f 85//132 83//132 15//132
f 85//133 25//133 83//133
f 87//134 84//134 86//134
f 25//135 86//135 84//135
f 85//136 86//136 25//136
f 15//137 84//137 85//137
f 20//138 25//138 15//138
f 88//139 85//139 84//139
f 88//140 86//140 85//140
f 90//141 87//141 89//141
f 86//142 89//142 87//142
f 88//143 89//143 86//143
f 84//144 87//144 88//144
f 91//145 88//145 87//145
f 91//146 89//146 88//146
f 93//147 90//147 92//147
f 91//148 92//148 89//148
f 87//149 90//149 91//149
f 89//150 92//150 90//150
f 94//151 91//151 90//151
f 94//152 92//152 91//152
f 96//153 95//153 93//153
f 92//154 97//154 93//154
f 94//155 97//155 92//155
f 90//156 93//156 94//156
f 98//157 94//157 93//157
f 98//158 97//158 94//158
f 98//159 95//159 96//159
f 93//160 95//160 98//160
f 98//161 96//161 97//161
f 93//162 97//162 96//162
f 99//163 32//163 18//163
f 29//164 32//164 22//164
f 100//165 22//165 32//165
f 100//166 18//166 22//166
f 102//167 99//167 101//167
f 18//168 101//168 99//168
f 100//169 101//169 18//169
f 32//170 99//170 100//170
f 103//171 100//171 99//171
f 103//172 101//172 100//172
f 105//173 102//173 104//173
f 101//174 104//174 102//174
f 103//175 104//175 101//175
f 99//176 102//176 103//176
f 106//177 103//177 102//177
f 106//178 104//178 103//178
f 108//179 105//179 107//179
f 104//180 107//180 105//180
f 106//181 107//181 104//181
f 102//182 105//182 106//182
f 109//183 106//183 105//183
f 109//184 107//184 106//184
f 111//185 110//185 108//185
f 107//186 112//186 108//186
f 109//187 112//187 107//187
f 105//188 108//188 109//188
f 113//189 109//189 108//189
f 113//190 112//190 109//190
f 113//191 110//191 111//191
f 113//192 111//192 112//192
f 108//193 110//193 113//193
f 108//194 112//194 111//194
f 15//195 27//195 30//195
f 22//196 23//196 31//196
f 10//197 15//197 23//197
f 115//198 11//198 114//198
f 9//199 11//199 115//199
f 16//200 5//200 114//200
f 12//201 9//201 10//201
f 24//202 22//202 16//202
f 114//203 11//203 12//203
f 114//204 12//204 16//204
f 24//205 17//205 10//205
f 31//206 23//206 15//206
f 29//207 22//207 31//207
f 10//208 17//208 12//208
f 16//209 17//209 24//209
f 23//210 24//210 10//210
f 30//211 31//211 15//211
f 115//212 114//212 5//212
f 2//213 9//213 115//213
f 115//214 5//214 6//214
f 115//215 50//215 2//215
f 62//216 50//216 6//216
f 29//217 30//217 27//217
f 6//218 50//218 115//218
